<svg xmlns="http://www.w3.org/2000/svg" viewBox="0 0 512 512">
  <defs>
    <linearGradient id="grad" x1="0%" y1="0%" x2="100%" y2="100%">
      <stop offset="0%" style="stop-color:#8b5cf6;stop-opacity:1" />
      <stop offset="100%" style="stop-color:#6366f1;stop-opacity:1" />
    </linearGradient>
  </defs>
  <rect width="512" height="512" rx="128" fill="url(#grad)"/>
  <path d="M168.3 128.9c32.6-39.7 75.3-25.7 87.7-18.3 12.4-7.4 55.1-21.4 87.7 18.3 36.3 44.4 20.2 96.6 6.7 121.2-12.7 23.1-41.2 55.5-62.9 77.2-13.6 13.6-25.9 23.3-31.4 27.4-5.6-4.1-17.9-13.8-31.4-27.4-21.7-21.7-50.2-54-62.9-77.2-13.5-24.6-29.6-76.8 6.6-121.2zm-25.9 66.8c-10.7 0-19.4 8.7-19.4 19.4 0 10.7 8.7 19.4 19.4 19.4 10.7 0 19.4-8.7 19.4-19.4 0-10.7-8.7-19.4-19.4-19.4zm227.1 0c-10.7 0-19.4 8.7-19.4 19.4 0 10.7 8.7 19.4 19.4 19.4 10.7 0 19.4-8.7 19.4-19.4 0-10.7-8.7-19.4-19.4-19.4z" fill="#ffffff"/>
  <path d="M256 368c-44.2 0-80 35.8-80 80h160c0-44.2-35.8-80-80-80z" fill="#ffffff" opacity="0.5"/>
</svg>
